<svg width="512" height="512" viewBox="0 0 192 192" fill="none" xmlns="http://www.w3.org/2000/svg" role="img" aria-labelledby="title desc">
  <title id="title">HowManyObjects.space logo mark</title>
  <desc id="desc">Earth surrounded by colored orbital paths and counted human-made objects.</desc>
  <defs>
    <radialGradient id="earthGlow" cx="0" cy="0" r="1" gradientUnits="userSpaceOnUse" gradientTransform="translate(86 82) rotate(63) scale(82)">
      <stop stop-color="#1C5C96" stop-opacity="0.95"/>
      <stop offset="0.56" stop-color="#0C1220"/>
      <stop offset="1" stop-color="#060A14"/>
    </radialGradient>
  </defs>
  <circle cx="96" cy="96" r="82" fill="#060A14"/>
  <circle cx="96" cy="96" r="58" stroke="#4DA6FF" stroke-opacity="0.26" stroke-width="2"/>
  <ellipse cx="96" cy="96" rx="80" ry="27" transform="rotate(-18 96 96)" stroke="#4DA6FF" stroke-width="4" stroke-linecap="round" stroke-dasharray="78 34"/>
  <ellipse cx="96" cy="96" rx="65" ry="22" transform="rotate(25 96 96)" stroke="#A78BFA" stroke-width="3" stroke-linecap="round" stroke-dasharray="54 32"/>
  <ellipse cx="96" cy="96" rx="74" ry="25" transform="rotate(58 96 96)" stroke="#FBBF24" stroke-opacity="0.88" stroke-width="2.5" stroke-linecap="round" stroke-dasharray="22 58"/>
  <circle cx="96" cy="96" r="43" fill="url(#earthGlow)"/>
  <path d="M70 93C76 75 92 63 112 58C116 66 118 74 117 83C115 103 99 119 79 125C69 117 66 105 70 93Z" fill="#4DA6FF" fill-opacity="0.28"/>
  <path d="M101 54C92 68 87 85 87 105C87 119 90 131 95 140" stroke="#4DA6FF" stroke-opacity="0.34" stroke-width="2" stroke-linecap="round"/>
  <path d="M61 97H131" stroke="#4DA6FF" stroke-opacity="0.24" stroke-width="2" stroke-linecap="round"/>
  <path d="M76 67C85 73 96 76 109 75" stroke="#4DA6FF" stroke-opacity="0.24" stroke-width="2" stroke-linecap="round"/>
  <path d="M73 123C86 116 101 114 118 118" stroke="#4DA6FF" stroke-opacity="0.24" stroke-width="2" stroke-linecap="round"/>
  <circle cx="44" cy="112" r="5.5" fill="#4DA6FF"/>
  <circle cx="153" cy="73" r="4.5" fill="#FBBF24"/>
  <circle cx="141" cy="133" r="5" fill="#F97316"/>
  <circle cx="61" cy="55" r="3.8" fill="#A78BFA"/>
  <path d="M134 48L146 44L142 56L154 64L140 66L135 79L129 67L116 66L127 57L124 44L134 48Z" fill="#F0F2F5" opacity="0.92"/>
  <circle cx="96" cy="96" r="82" stroke="#4DA6FF" stroke-opacity="0.18" stroke-width="2"/>
</svg>
